<?xml version="1.0" encoding="UTF-8"?>
<svg width="136px" height="98px" viewBox="0 0 136 98" version="1.1" xmlns="http://www.w3.org/2000/svg" xmlns:xlink="http://www.w3.org/1999/xlink">
    <title>Group</title>
    <g id="Page-1" stroke="none" stroke-width="1" fill="none" fill-rule="evenodd">
        <g id="Newsletter-Template-1---Desktop" transform="translate(-232.000000, -2333.000000)" fill-rule="nonzero">
            <g id="Group" transform="translate(232.000000, 2333.000000)">
                <g id="Group-9" transform="translate(42.489750, -0.002500)">
                    <path d="M22.76525,29.3525 C23.72325,30.3125 23.58025,31.9425 22.43225,32.6525 C18.02625,35.4125 12.14725,34.8725 8.31425,31.0425 C4.48225,27.2125 3.94525,21.3325 6.70325,16.9325 C7.42225,15.7825 9.04525,15.6325 10.00325,16.5925 L22.76525,29.3525 Z" id="Path" fill="#FF6446"></path>
                    <path d="M7.30625,38.1025 C5.63425,39.7825 2.92525,39.7825 1.25325,38.1025 C-0.41775,36.4325 -0.41775,33.7225 1.25325,32.0525 C2.92525,30.3825 5.63425,30.3825 7.30625,32.0525 C8.97625,33.7225 8.97625,36.4325 7.30625,38.1025 Z" id="Path" fill="#FF6446"></path>
                    <path d="M28.22325,21.6325 C27.26525,20.6825 27.40825,19.0525 28.55625,18.3325 C32.96225,15.5825 38.84225,16.1125 42.67425,19.9525 C46.50625,23.7825 47.04325,29.6625 44.28525,34.0625 C43.56725,35.2125 41.94325,35.3525 40.98525,34.4025 L28.22325,21.6325 Z" id="Path" fill="#3CD28C"></path>
                    <path d="M49.73425,18.9425 C48.06325,20.6125 45.35325,20.6125 43.68125,18.9425 C42.01025,17.2725 42.01025,14.5625 43.68125,12.8825 C45.35325,11.2125 48.06325,11.2125 49.73425,12.8825 C51.40525,14.5625 51.40525,17.2725 49.73425,18.9425 Z" id="Path" fill="#3CD28C"></path>
                    <path d="M29.35325,28.2225 C30.31125,27.2725 31.93425,27.4125 32.65325,28.5625 C35.41125,32.9625 34.87425,38.8425 31.04125,42.6725 C27.20925,46.5125 21.33025,47.0425 16.92425,44.2925 C15.77725,43.5725 15.63325,41.9425 16.59025,40.9925 L29.35325,28.2225 Z" id="Path" fill="#3CD28C"></path>
                    <path d="M38.10325,43.6825 C39.77425,45.3525 39.77425,48.0625 38.10325,49.7425 C36.43125,51.4125 33.72225,51.4125 32.05025,49.7425 C30.37925,48.0625 30.37925,45.3525 32.05025,43.6825 C33.72225,42.0125 36.43125,42.0125 38.10325,43.6825 Z" id="Path" fill="#3CD28C"></path>
                    <path d="M21.63425,22.7725 C20.67625,23.7225 19.05225,23.5825 18.33425,22.4325 C15.57625,18.0325 16.11325,12.1525 19.94525,8.3225 C23.77725,4.4825 29.65725,3.9525 34.06325,6.7025 C35.21125,7.4225 35.35425,9.0525 34.39625,10.0025 L21.63425,22.7725 Z" id="Path" fill="#FF6446"></path>
                    <path d="M18.93725,1.2525 C20.60825,2.9325 20.60825,5.6325 18.93725,7.3125 C17.26625,8.9825 14.55625,8.9825 12.88425,7.3125 C11.21325,5.6325 11.21325,2.9325 12.88425,1.2525 C14.55625,-0.4175 17.26625,-0.4175 18.93725,1.2525 Z" id="Path" fill="#FF6446"></path>
                </g>
                <path d="M0,85.93 L2.776,81.98 C4.555,83.65 6.525,84.48 8.689,84.48 C9.5,84.48 10.141,84.32 10.61,83.99 C11.08,83.66 11.315,83.23 11.315,82.71 C11.315,82.38 11.173,82.09 10.888,81.84 C10.603,81.59 10.208,81.36 9.703,81.15 C9.198,80.93 8.44,80.66 7.429,80.34 C6.788,80.12 6.216,79.91 5.711,79.7 C5.206,79.48 4.69,79.23 4.163,78.94 C3.636,78.65 3.184,78.32 2.807,77.97 C2.43,77.61 2.089,77.21 1.782,76.77 C1.477,76.33 1.245,75.83 1.089,75.26 C0.932,74.69 0.854,74.07 0.854,73.4 C0.854,72.13 1.192,71.01 1.868,70.04 C2.544,69.06 3.463,68.31 4.622,67.78 C5.782,67.26 7.088,66.99 8.54,66.99 C10.034,66.99 11.408,67.21 12.66,67.63 C13.913,68.06 15.143,68.75 16.353,69.68 L13.578,73.87 C12.781,73.11 11.937,72.55 11.048,72.17 C10.159,71.79 9.301,71.61 8.475,71.61 C7.935,71.61 7.45,71.74 7.024,72.02 C6.597,72.3 6.383,72.69 6.383,73.21 C6.383,73.63 6.636,74.02 7.141,74.36 C7.646,74.7 8.462,75.09 9.586,75.51 C11.948,76.38 13.528,77.07 14.325,77.58 C15.705,78.44 16.531,79.58 16.801,81 C16.887,81.43 16.929,81.9 16.929,82.43 C16.929,84.41 16.222,86.01 14.805,87.23 C13.389,88.46 11.336,89.07 8.646,89.07 C5.259,89.07 2.377,88.02 0,85.93 Z" id="Path" fill="#32283C"></path>
                <path d="M26.265,88.53 C25.084,88.18 24.034,87.67 23.117,87.02 C22.199,86.36 21.405,85.59 20.736,84.68 C20.068,83.78 19.559,82.76 19.21,81.64 C18.861,80.52 18.687,79.32 18.687,78.05 C18.687,76.47 18.961,75 19.509,73.63 C20.057,72.27 20.822,71.1 21.804,70.12 C22.786,69.15 23.988,68.38 25.412,67.83 C26.835,67.27 28.38,66.99 30.045,66.99 C31.681,66.99 33.204,67.26 34.613,67.81 C36.022,68.35 37.225,69.1 38.221,70.06 C39.217,71.02 39.997,72.19 40.558,73.56 C41.121,74.93 41.402,76.43 41.402,78.05 C41.402,80.2 40.918,82.12 39.951,83.8 C38.983,85.47 37.638,86.77 35.915,87.69 C34.193,88.61 32.236,89.07 30.045,89.07 C28.707,89.07 27.447,88.89 26.265,88.53 Z M33.994,82.28 C35.061,81.17 35.595,79.76 35.595,78.05 C35.595,76.32 35.068,74.9 34.015,73.79 C32.962,72.69 31.639,72.14 30.045,72.14 C28.393,72.14 27.052,72.7 26.02,73.81 C24.989,74.93 24.473,76.35 24.473,78.05 C24.473,79.72 24.995,81.12 26.042,82.25 C27.088,83.38 28.422,83.94 30.045,83.94 C31.61,83.94 32.927,83.39 33.994,82.28 Z" id="Shape" fill="#32283C"></path>
                <path d="M48.766,87.69 C47.101,86.77 45.794,85.47 44.848,83.8 C43.902,82.12 43.428,80.2 43.428,78.05 C43.428,75.89 43.906,73.97 44.859,72.29 C45.813,70.61 47.143,69.31 48.852,68.38 C50.559,67.46 52.502,66.99 54.679,66.99 C56.43,66.99 58.117,67.35 59.739,68.05 C61.362,68.75 62.7,69.77 63.753,71.09 L59.888,74.42 C58.579,72.9 56.921,72.14 54.914,72.14 C54.075,72.14 53.299,72.29 52.587,72.58 C51.875,72.87 51.274,73.27 50.783,73.78 C50.292,74.3 49.912,74.92 49.641,75.64 C49.37,76.37 49.236,77.16 49.236,78.01 C49.236,79.76 49.766,81.18 50.826,82.28 C51.886,83.38 53.263,83.92 54.957,83.92 C56.01,83.92 56.96,83.72 57.807,83.32 C58.654,82.91 59.355,82.39 59.91,81.77 L63.839,85.23 C62.856,86.36 61.551,87.29 59.921,88 C58.291,88.71 56.451,89.07 54.402,89.07 C52.309,89.07 50.43,88.61 48.766,87.69 Z" id="Path" fill="#32283C"></path>
                <path d="M81.839,67.52 C82.871,67.87 83.8,68.37 84.625,69.03 C85.451,69.69 86.166,70.48 86.771,71.38 C87.376,72.29 87.842,73.31 88.169,74.45 C88.496,75.6 88.66,76.81 88.66,78.1 C88.66,79.72 88.404,81.22 87.891,82.59 C87.379,83.96 86.671,85.12 85.767,86.07 C84.864,87.02 83.782,87.75 82.523,88.28 C81.262,88.81 79.9,89.07 78.434,89.07 C75.758,89.07 73.659,88.15 72.136,86.31 L72.051,86.31 L72.051,97.35 L66.329,97.35 L66.329,67.36 L72.051,67.36 L72.051,69.81 L72.136,69.81 C73.73,67.93 75.887,66.99 78.605,66.99 C79.729,66.99 80.806,67.17 81.839,67.52 Z M81.326,82.32 C82.343,81.24 82.852,79.84 82.852,78.12 C82.852,76.32 82.333,74.88 81.295,73.78 C80.255,72.69 78.952,72.14 77.388,72.14 C76.576,72.14 75.825,72.29 75.135,72.6 C74.444,72.9 73.858,73.32 73.374,73.85 C72.89,74.37 72.509,75.01 72.231,75.75 C71.954,76.49 71.815,77.28 71.815,78.12 C71.815,79.25 72.061,80.27 72.551,81.17 C73.043,82.07 73.712,82.75 74.558,83.23 C75.405,83.71 76.348,83.94 77.388,83.94 C78.996,83.94 80.309,83.4 81.326,82.32 Z" id="Shape" fill="#32283C"></path>
                <path d="M98.396,88.53 C97.214,88.18 96.164,87.67 95.247,87.02 C94.329,86.36 93.535,85.59 92.866,84.68 C92.198,83.78 91.689,82.76 91.34,81.64 C90.991,80.52 90.816,79.32 90.816,78.05 C90.816,76.47 91.09,75 91.639,73.63 C92.187,72.27 92.952,71.1 93.933,70.12 C94.916,69.15 96.118,68.38 97.542,67.83 C98.965,67.27 100.509,66.99 102.174,66.99 C103.811,66.99 105.334,67.26 106.743,67.81 C108.152,68.35 109.355,69.1 110.351,70.06 C111.347,71.02 112.127,72.19 112.688,73.56 C113.251,74.93 113.532,76.43 113.532,78.05 C113.532,80.2 113.048,82.12 112.08,83.8 C111.113,85.47 109.768,86.77 108.045,87.69 C106.323,88.61 104.366,89.07 102.174,89.07 C100.836,89.07 99.576,88.89 98.396,88.53 Z M106.123,82.28 C107.191,81.17 107.724,79.76 107.724,78.05 C107.724,76.32 107.198,74.9 106.145,73.79 C105.091,72.69 103.768,72.14 102.174,72.14 C100.523,72.14 99.181,72.7 98.149,73.81 C97.118,74.93 96.602,76.35 96.602,78.05 C96.602,79.72 97.125,81.12 98.171,82.25 C99.217,83.38 100.551,83.94 102.174,83.94 C103.739,83.94 105.055,83.39 106.123,82.28 Z" id="Shape" fill="#32283C"></path>
                <path d="M120.895,87.69 C119.23,86.77 117.924,85.47 116.978,83.8 C116.031,82.12 115.558,80.2 115.558,78.05 C115.558,75.89 116.035,73.97 116.988,72.29 C117.942,70.61 119.273,69.31 120.981,68.38 C122.688,67.46 124.631,66.99 126.809,66.99 C128.559,66.99 130.246,67.35 131.869,68.05 C133.491,68.75 134.829,69.77 135.882,71.09 L132.018,74.42 C130.709,72.9 129.051,72.14 127.044,72.14 C126.204,72.14 125.428,72.29 124.717,72.58 C124.005,72.87 123.404,73.27 122.913,73.78 C122.422,74.3 122.041,74.92 121.77,75.64 C121.5,76.37 121.365,77.16 121.365,78.01 C121.365,79.76 121.895,81.18 122.956,82.28 C124.016,83.38 125.393,83.92 127.087,83.92 C128.139,83.92 129.09,83.72 129.936,83.32 C130.783,82.91 131.485,82.39 132.04,81.77 L135.968,85.23 C134.986,86.36 133.68,87.29 132.051,88 C130.421,88.71 128.58,89.07 126.532,89.07 C124.439,89.07 122.561,88.61 120.895,87.69 Z" id="Path" fill="#32283C"></path>
            </g>
        </g>
    </g>
</svg>