<?xml version="1.0" encoding="UTF-8"?>
<svg width="598px" height="144px" viewBox="0 0 598 144" version="1.1" xmlns="http://www.w3.org/2000/svg" xmlns:xlink="http://www.w3.org/1999/xlink">
    <title>Group 11</title>
    <g id="Page-1" stroke="none" stroke-width="1" fill="none" fill-rule="evenodd">
        <g id="Newsletter-Template-1---Desktop" transform="translate(-1.000000, 0.000000)">
            <g id="Group-11" transform="translate(1.000000, 0.000000)">
                <rect id="Rectangle" fill="#1E1428" x="0" y="0" width="598" height="144"></rect>
                <g id="Group-9" transform="translate(263.000000, 36.000000)" fill-rule="nonzero">
                    <path d="M31.7244774,40.904129 C33.0594968,42.2419355 32.8602194,44.5134194 31.2604258,45.5028387 C25.1204516,49.3490323 16.9277806,48.5965161 11.5863097,43.2592258 C6.24623226,37.9219355 5.49789677,29.727871 9.34130323,23.5962581 C10.3432645,21.9936774 12.6049935,21.7846452 13.9400129,23.1224516 L31.7244774,40.904129 Z" id="Path" fill="#FF6446"></path>
                    <path d="M10.1816129,53.0976774 C7.8516,55.4388387 4.07647742,55.4388387 1.74646452,53.0976774 C-0.582154839,50.7704516 -0.582154839,46.9939355 1.74646452,44.6667097 C4.07647742,42.3394839 7.8516,42.3394839 10.1816129,44.6667097 C12.5088387,46.9939355 12.5088387,50.7704516 10.1816129,53.0976774 Z" id="Path" fill="#FF6446"></path>
                    <path d="M39.3304645,30.1459355 C37.9954452,28.8220645 38.1947226,26.5505806 39.7945161,25.5472258 C45.9344903,21.7149677 54.1285548,22.4535484 59.4686323,27.8047742 C64.8087097,33.1420645 65.5570452,41.336129 61.7136387,47.4677419 C60.713071,49.0703226 58.4499484,49.2654194 57.114929,47.9415484 L39.3304645,30.1459355 Z" id="Path" fill="#3CD28C"></path>
                    <path d="M69.3070839,26.3972903 C66.9784645,28.7245161 63.2019484,28.7245161 60.8719355,26.3972903 C58.5433161,24.0700645 58.5433161,20.2935484 60.8719355,17.9523871 C63.2019484,15.6251613 66.9784645,15.6251613 69.3070839,17.9523871 C71.6357032,20.2935484 71.6357032,24.0700645 69.3070839,26.3972903 Z" id="Path" fill="#3CD28C"></path>
                    <path d="M40.9051742,39.3294194 C42.2401935,38.0055484 44.5019226,38.2006452 45.5038839,39.8032258 C49.3472903,45.9348387 48.5989548,54.1289032 43.2574839,59.4661935 C37.9174065,64.8174194 29.7247355,65.556 23.5847613,61.7237419 C21.9863613,60.7203871 21.7856903,58.4489032 23.1193161,57.1250323 L40.9051742,39.3294194 Z" id="Path" fill="#3CD28C"></path>
                    <path d="M53.0987226,60.8736774 C55.4273419,63.2009032 55.4273419,66.9774194 53.0987226,69.3185806 C50.7687097,71.6458065 46.9935871,71.6458065 44.6635742,69.3185806 C42.3349548,66.9774194 42.3349548,63.2009032 44.6635742,60.8736774 C46.9935871,58.5464516 50.7687097,58.5464516 53.0987226,60.8736774 Z" id="Path" fill="#3CD28C"></path>
                    <path d="M30.1483742,31.7345806 C28.8133548,33.0584516 26.5502323,32.8633548 25.5496645,31.2607742 C21.7062581,25.1291613 22.4545935,16.9350968 27.794671,11.5978065 C33.1347484,6.24658065 41.3288129,5.508 47.4687871,9.34025806 C49.0685806,10.3436129 49.2678581,12.6150968 47.9328387,13.9389677 L30.1483742,31.7345806 Z" id="Path" fill="#FF6446"></path>
                    <path d="M26.3899742,1.74541935 C28.7185935,4.08658065 28.7185935,7.84916129 26.3899742,10.1903226 C24.0613548,12.5175484 20.2848387,12.5175484 17.9548258,10.1903226 C15.6262065,7.84916129 15.6262065,4.08658065 17.9548258,1.74541935 C20.2848387,-0.581806452 24.0613548,-0.581806452 26.3899742,1.74541935 Z" id="Path" fill="#FF6446"></path>
                </g>
            </g>
        </g>
    </g>
</svg>