<?xml version="1.0" encoding="UTF-8"?>
<svg width="41px" height="41px" viewBox="0 0 41 41" version="1.1" xmlns="http://www.w3.org/2000/svg" xmlns:xlink="http://www.w3.org/1999/xlink">
    <title>insta</title>
    <defs>
        <radialGradient cx="13.2871504%" cy="100.46875%" fx="13.2871504%" fy="100.46875%" r="130.548466%" gradientTransform="translate(0.132872,1.004688),scale(1.000000,0.999948),translate(-0.132872,-1.004688)" id="radialGradient-1">
            <stop stop-color="#FA8F21" offset="9%"></stop>
            <stop stop-color="#D82D7E" offset="78%"></stop>
        </radialGradient>
    </defs>
    <g id="Page-1" stroke="none" stroke-width="1" fill="none" fill-rule="evenodd">
        <g id="Newsletter-Template-1---Desktop" transform="translate(-304.000000, -2462.000000)">
            <g id="Group-8" transform="translate(209.000000, 2463.000000)">
                <g id="insta" transform="translate(96.000000, 0.000000)">
                    <rect id="Rectangle" fill="#FFFFFF" fill-rule="nonzero" x="0" y="0" width="39" height="39" rx="19.5"></rect>
                    <g id="Group" transform="translate(9.500000, 8.960000)" fill-rule="nonzero">
                        <path d="M6.8,10.54 C6.8,8.77 8.233,7.34 10,7.34 C11.767,7.34 13.2,8.77 13.2,10.54 C13.2,12.3 11.767,13.74 10,13.74 C8.233,13.74 6.8,12.3 6.8,10.54 Z M5.07,10.54 C5.07,13.26 7.277,15.46 10,15.46 C12.722,15.46 14.929,13.26 14.929,10.54 C14.929,7.81 12.722,5.61 10,5.61 C7.277,5.61 5.07,7.81 5.07,10.54 Z M13.9729891,5.41 C13.972,5.64 14.04,5.86 14.166,6.05 C14.293,6.24 14.473,6.39 14.683,6.47 C14.894,6.56 15.125,6.59 15.349,6.54 C15.572,6.5 15.778,6.39 15.939,6.23 C16.1,6.06 16.21,5.86 16.254,5.64 C16.299,5.41 16.276,5.18 16.189,4.97 C16.102,4.76 15.954,4.58 15.765,4.45 C15.576,4.33 15.353,4.26 15.125,4.26 L15.125,4.26 C14.819,4.26 14.526,4.38 14.31,4.6 C14.094,4.81 13.9729891,5.1 13.9729891,5.41 L13.9729891,5.41 Z M6.122,18.35 C5.186,18.31 4.677,18.15 4.339,18.02 C3.891,17.84 3.571,17.64 3.235,17.3 C2.898,16.97 2.69,16.65 2.516,16.2 C2.385,15.86 2.229,15.35 2.186,14.41 C2.14,13.4 2.13,13.1 2.13,10.54 C2.13,7.97 2.14,7.67 2.186,6.66 C2.229,5.72 2.386,5.21 2.516,4.87 C2.691,4.42 2.899,4.11 3.235,3.77 C3.57,3.43 3.89,3.22 4.339,3.05 C4.677,2.92 5.186,2.76 6.122,2.72 C7.133,2.67 7.437,2.66 10,2.66 C12.562,2.66 12.867,2.67 13.879,2.72 C14.815,2.76 15.323,2.92 15.662,3.05 C16.11,3.22 16.43,3.43 16.766,3.77 C17.103,4.1 17.31,4.42 17.485,4.87 C17.616,5.21 17.772,5.72 17.815,6.66 C17.861,7.67 17.871,7.97 17.871,10.54 C17.871,13.1 17.861,13.4 17.815,14.41 C17.772,15.35 17.615,15.86 17.485,16.2 C17.31,16.65 17.102,16.97 16.766,17.3 C16.431,17.64 16.11,17.84 15.662,18.02 C15.324,18.15 14.815,18.31 13.879,18.35 C12.868,18.4 12.564,18.41 10,18.41 C7.436,18.41 7.133,18.4 6.122,18.35 L6.122,18.35 Z M6.042,0.99 C5.02,1.04 4.322,1.2 3.712,1.44 C3.08,1.68 2.546,2.01 2.011,2.55 C1.477,3.08 1.149,3.62 0.904,4.25 C0.667,4.86 0.505,5.56 0.458,6.58 C0.411,7.6 0.4,7.93 0.4,10.54 C0.4,13.14 0.411,13.47 0.458,14.49 C0.505,15.52 0.667,16.21 0.904,16.82 C1.149,17.45 1.477,17.99 2.011,18.52 C2.545,19.06 3.08,19.39 3.712,19.63 C4.323,19.87 5.02,20.03 6.042,20.08 C7.066,20.12 7.393,20.14 10,20.14 C12.607,20.14 12.934,20.12 13.958,20.08 C14.98,20.03 15.678,19.87 16.288,19.63 C16.919,19.39 17.454,19.06 17.989,18.52 C18.523,17.99 18.85,17.45 19.096,16.82 C19.333,16.21 19.496,15.52 19.542,14.49 C19.588,13.47 19.599,13.14 19.599,10.54 C19.599,7.93 19.588,7.6 19.542,6.58 C19.495,5.56 19.333,4.86 19.096,4.25 C18.85,3.62 18.522,3.08 17.989,2.55 C17.455,2.01 16.919,1.68 16.289,1.44 C15.678,1.2 14.98,1.04 13.959,0.99 C12.935,0.95 12.608,0.94 10.001,0.94 C7.394,0.94 7.066,0.95 6.042,0.99 Z" id="Shape" fill="url(#radialGradient-1)"></path>
                        <path d="M6.8,10.54 C6.8,8.77 8.233,7.34 10,7.34 C11.767,7.34 13.2,8.77 13.2,10.54 C13.2,12.3 11.767,13.74 10,13.74 C8.233,13.74 6.8,12.3 6.8,10.54 Z M5.07,10.54 C5.07,13.26 7.277,15.46 10,15.46 C12.722,15.46 14.929,13.26 14.929,10.54 C14.929,7.81 12.722,5.61 10,5.61 C7.277,5.61 5.07,7.81 5.07,10.54 Z M13.9729891,5.41 C13.972,5.64 14.04,5.86 14.166,6.05 C14.293,6.24 14.473,6.39 14.683,6.47 C14.894,6.56 15.125,6.59 15.349,6.54 C15.572,6.5 15.778,6.39 15.939,6.23 C16.1,6.06 16.21,5.86 16.254,5.64 C16.299,5.41 16.276,5.18 16.189,4.97 C16.102,4.76 15.954,4.58 15.765,4.45 C15.576,4.33 15.353,4.26 15.125,4.26 L15.125,4.26 C14.819,4.26 14.526,4.38 14.31,4.6 C14.094,4.81 13.9729891,5.1 13.9729891,5.41 L13.9729891,5.41 Z M6.122,18.35 C5.186,18.31 4.677,18.15 4.339,18.02 C3.891,17.84 3.571,17.64 3.235,17.3 C2.898,16.97 2.69,16.65 2.516,16.2 C2.385,15.86 2.229,15.35 2.186,14.41 C2.14,13.4 2.13,13.1 2.13,10.54 C2.13,7.97 2.14,7.67 2.186,6.66 C2.229,5.72 2.386,5.21 2.516,4.87 C2.691,4.42 2.899,4.11 3.235,3.77 C3.57,3.43 3.89,3.22 4.339,3.05 C4.677,2.92 5.186,2.76 6.122,2.72 C7.133,2.67 7.437,2.66 10,2.66 C12.562,2.66 12.867,2.67 13.879,2.72 C14.815,2.76 15.323,2.92 15.662,3.05 C16.11,3.22 16.43,3.43 16.766,3.77 C17.103,4.1 17.31,4.42 17.485,4.87 C17.616,5.21 17.772,5.72 17.815,6.66 C17.861,7.67 17.871,7.97 17.871,10.54 C17.871,13.1 17.861,13.4 17.815,14.41 C17.772,15.35 17.615,15.86 17.485,16.2 C17.31,16.65 17.102,16.97 16.766,17.3 C16.431,17.64 16.11,17.84 15.662,18.02 C15.324,18.15 14.815,18.31 13.879,18.35 C12.868,18.4 12.564,18.41 10,18.41 C7.436,18.41 7.133,18.4 6.122,18.35 L6.122,18.35 Z M6.042,0.99 C5.02,1.04 4.322,1.2 3.712,1.44 C3.08,1.68 2.546,2.01 2.011,2.55 C1.477,3.08 1.149,3.62 0.904,4.25 C0.667,4.86 0.505,5.56 0.458,6.58 C0.411,7.6 0.4,7.93 0.4,10.54 C0.4,13.14 0.411,13.47 0.458,14.49 C0.505,15.52 0.667,16.21 0.904,16.82 C1.149,17.45 1.477,17.99 2.011,18.52 C2.545,19.06 3.08,19.39 3.712,19.63 C4.323,19.87 5.02,20.03 6.042,20.08 C7.066,20.12 7.393,20.14 10,20.14 C12.607,20.14 12.934,20.12 13.958,20.08 C14.98,20.03 15.678,19.87 16.288,19.63 C16.919,19.39 17.454,19.06 17.989,18.52 C18.523,17.99 18.85,17.45 19.096,16.82 C19.333,16.21 19.496,15.52 19.542,14.49 C19.588,13.47 19.599,13.14 19.599,10.54 C19.599,7.93 19.588,7.6 19.542,6.58 C19.495,5.56 19.333,4.86 19.096,4.25 C18.85,3.62 18.522,3.08 17.989,2.55 C17.455,2.01 16.919,1.68 16.289,1.44 C15.678,1.2 14.98,1.04 13.959,0.99 C12.935,0.95 12.608,0.94 10.001,0.94 C7.394,0.94 7.066,0.95 6.042,0.99 Z" id="Shape" fill="#3CD28C"></path>
                    </g>
                    <rect id="Rectangle" stroke="#DFE1E6" x="0" y="0" width="39" height="39" rx="19.5"></rect>
                </g>
            </g>
        </g>
    </g>
</svg>