<?xml version="1.0" encoding="UTF-8"?>
<svg width="41px" height="41px" viewBox="0 0 41 41" version="1.1" xmlns="http://www.w3.org/2000/svg" xmlns:xlink="http://www.w3.org/1999/xlink">
    <title>tw</title>
    <g id="Page-1" stroke="none" stroke-width="1" fill="none" fill-rule="evenodd">
        <g id="Newsletter-Template-1---Desktop" transform="translate(-256.000000, -2462.000000)">
            <g id="Group-8" transform="translate(209.000000, 2463.000000)">
                <g id="tw" transform="translate(48.000000, 0.000000)">
                    <rect id="Rectangle" fill="#FFFFFF" fill-rule="nonzero" x="0" y="0" width="39" height="39" rx="19.5"></rect>
                    <path d="M30.162,13.16 C29.372,13.51 28.525,13.75 27.633,13.85 C28.543,13.31 29.24,12.44 29.569,11.42 C28.705,11.93 27.759,12.29 26.773,12.49 C25.97,11.63 24.825,11.1 23.559,11.1 C21.128,11.1 19.157,13.07 19.157,15.5 C19.157,15.84 19.196,16.18 19.27,16.5 C15.611,16.32 12.367,14.57 10.196,11.9 C9.817,12.55 9.6,13.31 9.6,14.12 C9.6,15.64 10.377,16.99 11.558,17.78 C10.859,17.76 10.175,17.57 9.564,17.23 L9.564,17.28 C9.564,19.42 11.081,21.2 13.095,21.6 C12.725,21.7 12.337,21.76 11.935,21.76 C11.651,21.76 11.376,21.73 11.106,21.68 C11.667,23.43 13.293,24.7 15.219,24.74 C13.712,25.92 11.813,26.62 9.751,26.62 C9.396,26.62 9.045,26.6 8.7,26.56 C10.649,27.81 12.963,28.54 15.449,28.54 C23.547,28.54 27.976,21.83 27.976,16.01 C27.976,15.82 27.971,15.63 27.962,15.44 C28.825,14.82 29.57,14.04 30.162,13.16 L30.162,13.16 Z" id="Path" fill="#3CD28C" fill-rule="nonzero"></path>
                    <rect id="Rectangle" stroke="#DFE1E6" x="0" y="0" width="39" height="39" rx="19.5"></rect>
                </g>
            </g>
        </g>
    </g>
</svg>